 <svg
          width="40"
          height="30"
          viewBox="0 0 435 300"
          fill="none"
          xmlns="http://www.w3.org/2000/svg"
        >
          <path
            d="M31.0625 59.875H403.812C420.959 59.875 434.875 46.463 434.875 29.9375C434.875 13.412 420.959 0 403.812 0H31.0625C13.916 0 0 13.412 0 29.9375C0 46.463 13.916 59.875 31.0625 59.875ZM403.812 119.75H31.0625C13.916 119.75 0 133.162 0 149.688C0 166.213 13.916 179.625 31.0625 179.625H403.812C420.959 179.625 434.875 166.213 434.875 149.688C434.875 133.162 420.959 119.75 403.812 119.75ZM403.812 239.5H31.0625C13.916 239.5 0 252.912 0 269.438C0 285.963 13.916 299.375 31.0625 299.375H403.812C420.959 299.375 434.875 285.963 434.875 269.438C434.875 252.912 420.959 239.5 403.812 239.5Z"
            fill="#4F4145"
          />
        </svg>